<?xml version="1.0" encoding="UTF-8" standalone="no"?>
<!DOCTYPE svg PUBLIC "-//W3C//DTD SVG 1.1//EN" "http://www.w3.org/Graphics/SVG/1.1/DTD/svg11.dtd">
<svg width="100%" height="100%" viewBox="0 0 2142 1264" version="1.1" xmlns="http://www.w3.org/2000/svg" xmlns:xlink="http://www.w3.org/1999/xlink" xml:space="preserve" xmlns:serif="http://www.serif.com/" style="fill-rule:evenodd;clip-rule:evenodd;stroke-linejoin:round;stroke-miterlimit:1.41421;">
    <g transform="matrix(1,0,0,1,-92,-2659)">
        <g transform="matrix(1,0,0,1,61.6277,1142.69)">
            <g transform="matrix(7.04006,0,0,7.04006,956.363,2163.13)">
                <path d="M0,-88.014C4.485,-88.014 8.814,-87.341 12.891,-86.094C7.224,-82.526 2.308,-77.832 -1.529,-72.296C-16.465,-71.501 -28.33,-59.14 -28.33,-44.006C-28.33,-28.361 -15.645,-15.676 0,-15.676C15.647,-15.676 28.332,-28.361 28.332,-44.006C28.332,-49.955 26.498,-55.474 23.365,-60.033C27.072,-63.726 32.02,-66.102 37.419,-66.555L37.779,-66.585C41.733,-59.985 44.008,-52.261 44.008,-44.006C44.008,-19.703 24.306,0 0,0C-24.303,0 -44.008,-19.703 -44.008,-44.006C-44.008,-68.312 -24.303,-88.014 0,-88.014" style="fill:rgb(58,162,73);fill-rule:nonzero;"/>
            </g>
            <g transform="matrix(7.04006,0,0,7.04006,1244.48,1654.18)">
                <path d="M0,56.572C11.954,55.914 21.932,47.845 25.42,36.885L41.583,36.885C37.585,57.072 19.781,72.293 -1.582,72.293C-6.064,72.293 -10.39,71.621 -14.466,70.375C-9.394,67.181 -4.876,63.056 -1.172,58.131L0,56.572ZM-1.582,-15.721C19.78,-15.721 37.585,-0.5 41.583,19.686L25.42,19.686C21.78,8.244 11.067,-0.046 -1.582,-0.046C-17.228,-0.046 -29.912,12.638 -29.912,28.286C-29.912,34.234 -28.076,39.754 -24.944,44.312C-28.767,48.127 -33.865,50.484 -39.36,50.863C-43.313,44.261 -45.589,36.54 -45.589,28.286C-45.589,3.981 -25.886,-15.721 -1.582,-15.721" style="fill:rgb(240,119,34);fill-rule:nonzero;"/>
            </g>
            <g transform="matrix(7.04006,0,0,7.04006,46.8823,2430.22)">
                <path d="M0,0C0,8.986 7.413,16.398 17.073,16.398C26.733,16.398 34.146,8.986 34.146,0C34.146,-8.986 26.733,-16.398 17.073,-16.398C7.413,-16.398 0,-8.986 0,0M6.964,0C6.964,-5.842 11.457,-10.334 17.073,-10.334C22.688,-10.334 27.183,-5.842 27.183,0C27.183,5.84 22.688,10.334 17.073,10.334C11.457,10.334 6.964,5.84 6.964,0" style="fill:rgb(58,162,73);fill-rule:nonzero;"/>
            </g>
            <g transform="matrix(7.04006,0,0,7.04006,415.914,2498.24)">
                <path d="M0,-19.321C2.696,-19.321 4.717,-17.3 4.717,-14.829C4.717,-12.356 2.696,-10.335 0,-10.335L-6.29,-10.335L-6.29,-19.321L0,-19.321ZM-13.029,-25.385L-13.029,6.064L-6.29,6.064L-6.29,-4.27L0.225,-4.27C6.739,-4.27 11.457,-8.852 11.457,-14.829C11.457,-20.758 6.739,-25.385 0.225,-25.385L-13.029,-25.385Z" style="fill:rgb(58,162,73);fill-rule:nonzero;"/>
            </g>
            <g transform="matrix(7.04006,0,0,7.04006,581.192,2362.21)">
                <path d="M0,19.321L0,12.356L12.805,12.356L12.805,6.292L0,6.292L0,0.001L16.399,0.001L16.399,-6.064L-6.739,-6.064L-6.739,25.385L16.849,25.385L16.849,19.321L0,19.321Z" style="fill:rgb(58,162,73);fill-rule:nonzero;"/>
            </g>
            <g transform="matrix(7.04006,0,0,7.04006,894.33,2540.92)">
                <path d="M0,-31.449L0,-11.457L-15.5,-31.449L-21.341,-31.449L-21.341,0L-14.603,0L-14.603,-19.992L0.899,0L6.739,0L6.739,-31.449L0,-31.449Z" style="fill:rgb(58,162,73);fill-rule:nonzero;"/>
            </g>
            <g transform="matrix(7.04006,0,0,7.04006,1099.93,2545.67)">
                <path d="M0,-32.797C-9.66,-32.797 -17.072,-25.385 -17.072,-16.399C-17.072,-7.412 -9.66,0 0,0C8.762,0 13.254,-6.289 13.254,-6.289L9.21,-10.559C9.21,-10.559 6.064,-6.065 0,-6.065C-5.841,-6.065 -10.334,-10.559 -10.334,-16.399C-10.334,-22.24 -5.841,-26.733 0,-26.733C5.84,-26.733 8.762,-22.24 8.762,-22.24L13.029,-26.508C13.029,-26.508 8.762,-32.797 0,-32.797" style="fill:rgb(240,119,34);fill-rule:nonzero;"/>
            </g>
            <g transform="matrix(7.04006,0,0,7.04006,0.00181202,2113.51)">
                <rect x="174.883" y="29.262" width="6.74" height="31.449" style="fill:rgb(240,119,34);"/>
            </g>
            <g transform="matrix(7.04006,0,0,7.04006,1458.41,2468.19)">
                <path d="M0,-10.785C0,-8.537 -1.797,-6.74 -4.268,-6.74L-11.231,-6.74L-11.231,-15.053L-4.268,-15.053C-1.797,-15.053 0,-13.256 0,-10.785M-17.972,10.332L-11.231,10.332L-11.231,-0.676L-5.392,-0.676L0.674,10.332L7.862,10.332L1.123,-1.574C1.123,-1.574 6.739,-4.045 6.739,-10.785C6.739,-16.535 2.246,-21.117 -4.044,-21.117L-17.972,-21.117L-17.972,10.332Z" style="fill:rgb(240,119,34);fill-rule:nonzero;"/>
            </g>
            <g transform="matrix(7.04006,0,0,7.04006,1656.64,2545.67)">
                <path d="M0,-32.797C-9.66,-32.797 -17.073,-25.385 -17.073,-16.399C-17.073,-7.412 -9.66,0 0,0C8.761,0 13.254,-6.289 13.254,-6.289L9.21,-10.559C9.21,-10.559 6.065,-6.065 0,-6.065C-5.841,-6.065 -10.334,-10.559 -10.334,-16.399C-10.334,-22.24 -5.841,-26.733 0,-26.733C5.841,-26.733 8.761,-22.24 8.761,-22.24L13.029,-26.508C13.029,-26.508 8.761,-32.797 0,-32.797" style="fill:rgb(240,119,34);fill-rule:nonzero;"/>
            </g>
            <g transform="matrix(7.04006,0,0,7.04006,1928.94,2319.52)">
                <path d="M0,31.449L0,25.385L-13.033,25.385L-13.033,0L-19.771,0L-19.771,31.449L0,31.449Z" style="fill:rgb(240,119,34);fill-rule:nonzero;"/>
            </g>
            <g transform="matrix(7.04006,0,0,7.04006,2018.29,2362.21)">
                <path d="M0,19.321L0,12.356L12.804,12.356L12.804,6.292L0,6.292L0,0.001L16.397,0.001L16.397,-6.064L-6.74,-6.064L-6.74,25.385L16.848,25.385L16.848,19.321L0,19.321Z" style="fill:rgb(240,119,34);fill-rule:nonzero;"/>
            </g>
            <g transform="matrix(7.04006,0,0,7.04006,327.391,2681.04)">
                <path d="M0,-0.002C0,-2.404 1.897,-4.301 4.301,-4.301C6.705,-4.301 8.602,-2.404 8.602,-0.002C8.602,2.402 6.705,4.299 4.301,4.299C1.897,4.299 0,2.402 0,-0.002M170.384,-0.002C170.384,-2.404 172.28,-4.301 174.684,-4.301C177.088,-4.301 178.984,-2.404 178.984,-0.002C178.984,2.402 177.088,4.299 174.684,4.299C172.28,4.299 170.384,2.402 170.384,-0.002M216.679,-0.254L216.679,-8.856L222.37,-8.856L222.37,8.854L217.564,8.854L210.86,0.252L210.86,8.854L205.168,8.854L205.168,-8.856L209.975,-8.856L216.679,-0.254ZM118.396,-8.856L118.396,-3.67L113.715,-3.67L113.715,8.854L108.023,8.854L108.023,-3.67L103.344,-3.67L103.344,-8.856L118.396,-8.856ZM40.478,-8.856L40.478,3.668L47.94,3.668L47.94,8.854L34.785,8.854L34.785,-8.856L40.478,-8.856ZM144.199,8.854L138.508,8.854L138.508,-8.855L144.199,-8.855L144.199,8.854ZM14.293,-0.002C14.293,-5.061 9.992,-9.361 4.301,-9.361C-1.392,-9.361 -5.691,-5.061 -5.691,-0.002C-5.691,5.058 -1.392,9.359 4.301,9.359C9.992,9.359 14.293,5.058 14.293,-0.002M184.677,-0.002C184.677,-5.061 180.375,-9.361 174.684,-9.361C168.991,-9.361 164.691,-5.061 164.691,-0.002C164.691,5.058 168.991,9.359 174.684,9.359C180.375,9.359 184.677,5.058 184.677,-0.002M72.479,-8.856L72.479,1.391C72.479,3.035 73.744,4.299 75.135,4.299C76.526,4.299 77.791,3.035 77.791,1.391L77.791,-8.856L83.483,-8.856L83.483,1.391C83.483,5.943 80.068,9.359 75.135,9.359C70.202,9.359 66.787,5.943 66.787,1.391L66.787,-8.856L72.479,-8.856ZM250.704,3.287C250.704,4.047 250.072,4.68 248.934,4.68C247.036,4.68 245.518,3.035 245.518,3.035L242.229,6.324C242.229,6.324 244.887,9.359 249.692,9.359C254.372,9.359 257.029,6.525 257.029,3.414C257.029,-2.658 249.314,-1.771 249.314,-3.543C249.314,-4.176 249.819,-4.682 250.831,-4.682C252.35,-4.682 253.361,-3.416 253.361,-3.416L256.649,-6.832C256.649,-6.832 254.625,-9.361 250.072,-9.361C245.646,-9.361 242.988,-6.578 242.988,-3.721C242.988,2.275 250.704,1.518 250.704,3.287M-31.369,3.287C-31.369,4.047 -32.002,4.68 -33.141,4.68C-35.037,4.68 -36.556,3.035 -36.556,3.035L-39.845,6.324C-39.845,6.324 -37.188,9.359 -32.382,9.359C-27.701,9.359 -25.045,6.525 -25.045,3.414C-25.045,-2.658 -32.762,-1.771 -32.762,-3.543C-32.762,-4.176 -32.256,-4.682 -31.244,-4.682C-29.726,-4.682 -28.713,-3.416 -28.713,-3.416L-25.425,-6.832C-25.425,-6.832 -27.449,-9.361 -32.002,-9.361C-36.43,-9.361 -39.086,-6.578 -39.086,-3.721C-39.086,2.275 -31.369,1.518 -31.369,3.287" style="fill:rgb(165,159,151);fill-rule:nonzero;"/>
            </g>
        </g>
    </g>
</svg>
